<?xml version="1.0" encoding="utf-8"?>
<!-- Generator: Adobe Illustrator 23.0.3, SVG Export Plug-In . SVG Version: 6.00 Build 0)  -->
<svg version="1.1" id="Layer_1" xmlns="http://www.w3.org/2000/svg" xmlns:xlink="http://www.w3.org/1999/xlink" x="0px" y="0px"
	 viewBox="0 0 923.1 231.3" style="enable-background:new 0 0 923.1 231.3;" xml:space="preserve">
<style type="text/css">
	.st0{fill:#8891B1;}
	.st1{fill:#63688E;}
	.st2{fill:#464A75;}
</style>
<path class="st0" d="M70.9,85.6V0L0,117.8L70.9,85.6z"/>
<path class="st1" d="M70.9,159.7V85.6L0,117.8L70.9,159.7z M70.9,85.6l71,32.2L70.9,0V85.6z"/>
<path class="st2" d="M70.9,85.6v74.2l71-42L70.9,85.6z"/>
<path class="st0" d="M70.9,173.2L0,131.3l70.9,100V173.2z"/>
<path class="st1" d="M142,131.3l-71,41.9v58.1L142,131.3z"/>
<path class="st0" d="M260.6,133.7c0,1.6-1.5,3.1-3.1,3.1h-56.8c1.5,13.5,12,26.7,26.8,26.7c10.2,0,17.7-3.9,23.4-12.1
	c0.6-0.9,1.5-1.5,2.5-1.5c1.6,0,2.8,1.2,2.8,2.8c0,0.6-0.2,1-0.4,1.5c-5.7,10-17.1,14.9-28.3,14.9c-19.1,0-32.7-17.1-32.7-35.4
	s13.6-35.3,32.7-35.3S260.6,115.4,260.6,133.7L260.6,133.7z M254.4,130.9c-1.2-14.4-12-26.8-26.8-26.8c-14.9,0-25.5,12.4-26.8,26.8
	H254.4z M329.6,99.2c1.6,0,2.8,1.5,2.8,2.9c0,1.6-1.2,2.9-2.8,2.9h-15.2v60c0,1.5-1.3,2.8-2.9,2.8c-1.6,0-2.9-1.5-2.9-2.8v-60h-14.6
	c-1.6,0-2.8-1.3-2.8-2.9c0-1.5,1.2-2.9,2.8-2.9h14.6V77.5c0-1.6,1.3-2.8,2.9-2.8c1.6,0,2.9,1.2,2.9,2.8v21.7H329.6z M422.1,128.4
	v36.2c0,1.6-0.9,2.8-2.4,2.8c-1.6,0-2.4-1.2-2.4-2.8v-36.2c0-12.2-7.1-24.4-20.8-24.4c-17.5,0-25.3,15.3-24.4,30.9
	c0,0.4-0.1,2.2-0.1,2.5v27.3c0,1.6-0.8,2.8-2.4,2.8s-2.4-1.2-2.4-2.8V45.6c0-1.5,0.8-2.8,2.4-2.8s2.4,1.5,2.4,2.8v67.4
	c5.8-8.7,13.6-14.6,23.8-14.6C412.5,98.3,422.1,112.9,422.1,128.4L422.1,128.4z M524.4,133.7c0,1.6-1.5,3.1-3.1,3.1h-56.8
	c1.5,13.5,12,26.7,26.8,26.7c10.2,0,17.7-3.9,23.4-12.1c0.6-0.9,1.5-1.5,2.5-1.5c1.6,0,2.8,1.2,2.8,2.8c0,0.6-0.2,1-0.4,1.5
	c-5.7,10-17.1,14.9-28.3,14.9c-19.1,0-32.7-17.1-32.7-35.4s13.6-35.3,32.7-35.3S524.4,115.4,524.4,133.7z M518.4,130.9
	c-1.2-14.4-12-26.8-26.8-26.8c-14.9,0-25.5,12.4-26.8,26.8H518.4z M594.3,102.1c0,1.8-1,2.8-2.7,3.1c-16.7,2.5-24.3,16.1-24.3,32
	v27.2c0,1.6-1.3,2.8-2.9,2.8c-1.6,0-2.9-1.2-2.9-2.8v-62.1c0-1.6,1.3-2.8,2.9-2.8c1.6,0,2.9,1.2,2.9,2.8V115
	c4.8-7.9,14.1-15.5,23.8-15.5C592.6,99.5,594.3,100.5,594.3,102.1z M687.6,133.7c0,1.6-1.5,3.1-3.1,3.1h-56.8
	c1.5,13.5,12,26.7,26.8,26.7c10.2,0,17.7-3.9,23.4-12.1c0.6-0.9,1.5-1.5,2.5-1.5c1.6,0,2.8,1.2,2.8,2.8c0,0.6-0.2,1-0.4,1.5
	c-5.7,10-17.1,14.9-28.3,14.9c-19.1,0-32.7-17.1-32.7-35.4s13.6-35.3,32.7-35.3C673.8,98.2,687.6,115.4,687.6,133.7L687.6,133.7z
	 M681.5,130.9c-1.2-14.4-12-26.8-26.8-26.8s-25.5,12.4-26.8,26.8H681.5z M779.8,102.7V165c0,1.6-1.5,2.8-2.9,2.8
	c-1.6,0-2.9-1.2-2.9-2.8v-11.7c-4.8,9.3-13.1,16.1-23.7,16.1c-16.9,0-26.3-14.6-26.3-30.1v-36.4c0-1.5,1.3-2.8,2.9-2.8
	s2.9,1.5,2.9,2.8v36.4c0,12.2,6.9,24.4,20.6,24.4c19.1,0,23.7-17.9,23.7-37.6v-23.2c0-1.5,1.3-2.8,2.9-2.8
	C778.4,99.9,779.8,101.4,779.8,102.7L779.8,102.7z M923.1,128.2v36.4c0,1.6-1.5,2.8-2.9,2.8c-1.6,0-2.9-1.2-2.9-2.8v-36.4
	c0-12.2-6.9-24.2-20.6-24.2c-17.1,0-23.7,18.3-23.7,32.6v28c0,1.6-1.5,2.8-2.9,2.8c-1.6,0-2.9-1.2-2.9-2.8v-36.4
	c0-12.2-6.8-24.2-20.3-24.2c-17.3,0-24.4,13.6-23.8,31.7v28.9c0,1.6-1.3,2.8-2.9,2.8s-2.9-1.2-2.9-2.8v-62.2c0-1.6,1.3-2.8,2.9-2.8
	s2.9,1.2,2.9,2.8v10.3c4.8-8.7,13.8-14.4,23.9-14.4c11.6,0,20.6,7.4,24.3,18.1c4.7-10.6,13.8-18.1,25.6-18.1
	C913.6,98.3,923.1,112.7,923.1,128.2L923.1,128.2z"/>
</svg>
