<svg width="26" height="34" viewBox="0 0 26 34" fill="none" xmlns="http://www.w3.org/2000/svg">
<path d="M15.1667 9.03125V0H1.625C0.724479 0 0 0.710547 0 1.59375V32.4062C0 33.2895 0.724479 34 1.625 34H24.375C25.2755 34 26 33.2895 26 32.4062V10.625H16.7917C15.8979 10.625 15.1667 9.90781 15.1667 9.03125ZM19.5 24.7031C19.5 25.1414 19.1344 25.5 18.6875 25.5H7.3125C6.86563 25.5 6.5 25.1414 6.5 24.7031V24.1719C6.5 23.7336 6.86563 23.375 7.3125 23.375H18.6875C19.1344 23.375 19.5 23.7336 19.5 24.1719V24.7031ZM19.5 20.4531C19.5 20.8914 19.1344 21.25 18.6875 21.25H7.3125C6.86563 21.25 6.5 20.8914 6.5 20.4531V19.9219C6.5 19.4836 6.86563 19.125 7.3125 19.125H18.6875C19.1344 19.125 19.5 19.4836 19.5 19.9219V20.4531ZM19.5 15.6719V16.2031C19.5 16.6414 19.1344 17 18.6875 17H7.3125C6.86563 17 6.5 16.6414 6.5 16.2031V15.6719C6.5 15.2336 6.86563 14.875 7.3125 14.875H18.6875C19.1344 14.875 19.5 15.2336 19.5 15.6719ZM26 8.09492V8.5H17.3333V0H17.7464C18.1797 0 18.5927 0.166016 18.8974 0.464844L25.526 6.97266C25.8307 7.27148 26 7.67656 26 8.09492Z" fill="#33333D"/>
</svg>
