<?xml version="1.0" encoding="utf-8"?>
<!-- Generator: Adobe Illustrator 23.0.3, SVG Export Plug-In . SVG Version: 6.00 Build 0)  -->
<svg version="1.1"
	 id="svg7043" xmlns:cc="http://creativecommons.org/ns#" xmlns:dc="http://purl.org/dc/elements/1.1/" xmlns:inkscape="http://www.inkscape.org/namespaces/inkscape" xmlns:rdf="http://www.w3.org/1999/02/22-rdf-syntax-ns#" xmlns:sodipodi="http://sodipodi.sourceforge.net/DTD/sodipodi-0.dtd" xmlns:svg="http://www.w3.org/2000/svg"
	 xmlns="http://www.w3.org/2000/svg" xmlns:xlink="http://www.w3.org/1999/xlink" x="0px" y="0px" viewBox="0 0 249 312"
	 style="enable-background:new 0 0 249 312;" xml:space="preserve">
<sodipodi:namedview  bordercolor="#666666" borderopacity="1.0" id="base" inkscape:current-layer="layer1" inkscape:cx="397.78527" inkscape:cy="661.01525" inkscape:document-units="mm" inkscape:pageopacity="0.0" inkscape:pageshadow="2" inkscape:window-height="1158" inkscape:window-maximized="1" inkscape:window-width="1870" inkscape:window-x="50" inkscape:window-y="0" inkscape:zoom="1.979899" pagecolor="#ffffff" showgrid="false">
	</sodipodi:namedview>
<g id="layer1" inkscape:groupmode="layer" inkscape:label="Layer 1">
	<path id="path4755-6-6-7-4" inkscape:connector-curvature="0" sodipodi:nodetypes="ccsccsc" d="M9.5,100.6
		c-15.5,17.1-13.2,48.6,32.9,59c0-21.5,37.1-30.1,82.1-30.1c48.3,0,82.6,7.9,82.6,30.5c46.2-10.2,48.9-44.8,30.3-62.1
		c-22.6-21.1-31.8,14-112.6,14C51.2,111.8,34.2,73.3,9.5,100.6L9.5,100.6z"/>
	<g id="g4759-3-2-7-0" transform="matrix(-3.3898863,0,0,3.6159782,152.00605,45.182991)">
		<path id="path4757-8-1-6-5" inkscape:connector-curvature="0" sodipodi:nodetypes="scssscs" d="M8.2,15c10.8,0,22.3-4.4,22.3-4.4
			V6.5c0-9.4-5.9-18.9-22.7-18.9c-17.5,0-22.7,9.8-22.7,18.9v4.3C-14.8,10.8-2.1,15,8.2,15z"/>
	</g>
	<path id="path5261-5-5-1-5-30-6" d="M170.5,166.8c-0.4,0.7-0.5,1.6-0.2,2.3c0.1,0.3,0.2,0.5,0.5,0.8c0.5,0.6,0.8,0.6,2.1,0.6l1,0
		l0.3,0.3c0.7,0.6,1.2,0.8,2.2,0.8c1.7,0,2.9-1.2,3-3.2c0.1-1.6-0.5-2.8-1.7-3.4c-0.7-0.4-1.7-0.4-2.4-0.2c-0.4,0.2-1,0.5-1.2,0.7
		c-0.2,0.2-0.3,0.2-1.2,0.2C171.6,165.8,171,166,170.5,166.8L170.5,166.8z M168.6,150.3h9.3c3.7,0,6.7,3.2,6.7,7.2v4.6
		c0.5,0.3,1,0.7,1.4,1.1c2.5,2.7,2.5,7.5,0,10.1c-0.4,0.5-0.9,0.8-1.4,1.1v4.6c0,4-3,7.2-6.7,7.2h-9.3c-4.9,6.6-12.5,10.8-21,10.8
		c-14.9,0-26.9-12.9-26.9-28.7c0-15.8,12.1-28.7,26.9-28.7C156.1,139.5,163.7,143.7,168.6,150.3L168.6,150.3z M134.2,168.2
		c0,7.9,6,14.4,13.5,14.4c7.4,0,13.5-6.4,13.5-14.4c0-7.9-6-14.4-13.5-14.4C140.2,153.9,134.2,160.3,134.2,168.2z"/>
	<path id="path6628-7-9-9" inkscape:connector-curvature="0" sodipodi:nodetypes="cccc" d="M175.4,308.9l-50.7-23.5l50.8-25
		L175.4,308.9z"/>
	<path id="path5178-5-7-43-5-2" inkscape:connector-curvature="0" sodipodi:nodetypes="ssssccssscscssccsscscccsscsssccssssccs" d="
		M133,261.8c10.2-1.4,15.8-3,23.1-6.5c6.6-3.2,11.2-6.3,17.1-11.9c10-9.3,17.6-20.9,24-36.8c6.5-16.1,11.4-38.6,11.5-53.7
		c0.1-6.9,0-7.4-1.5-10.3c-3.8-7.5-15.3-14.5-30.7-18.6c-30.2-8.2-70.8-8.3-101-0.3c-16.4,4.3-27.6,11-31.7,18.8
		c-1.6,3-1.6,3.4-1.6,9.9c0,3.7,0,6.8-0.1,6.8c-0.1,0,1.3,0.5,0,0c-12.1-4.2-26.6-0.2-30.8,10.5c-4.1,10.5-0.2,23.5,10,33.4
		c8.2,7.9,21.5,14.5,35.9,17.8c3.7,0.9,4,1.1,5.2,3.2c5,8.7,14.3,19.2,22.2,24.9c8.6,6.2,19.4,10.6,30.2,12.1
		C120.1,262.1,129.4,262.3,133,261.8L133,261.8z M113.9,247.3c-26.2-5.2-45.2-30-53.9-69.9c-3.9-18.1-3.6-28.4-3.6-28.4
		s2.8-7.8,24.5-13.6c34.8-9.3,61.3-8.7,89.9,0c21.1,6.5,25.2,14.1,25.2,14.1s3.2,0.4-3.2,28.4c-5.6,24.2-15.7,43.4-28.1,55.5
		c-8.7,8.5-18.4,12.6-29.3,14.4C130.3,248.5,119.1,248.3,113.9,247.3L113.9,247.3z M46,203.1c-10.1-4.6-16.6-9.9-20-16.7
		c-1.7-3.3-2-4.6-2-7.3c0-5.5,2.5-8.3,7.4-8.3c4.2,0,14.5,3.9,14.5,6.5c0,1.6,3.7,17.5,5.8,23.4C53.9,207,54.3,206.8,46,203.1
		L46,203.1z"/>
	<path id="path6628-7-9-9-4" inkscape:connector-curvature="0" sodipodi:nodetypes="cccc" d="M74,262l50.7,23.5l-50.8,25L74,262z"/>
</g>
</svg>
