<?xml version="1.0" encoding="UTF-8"?>
<svg width="172px" height="40px" viewBox="0 0 172 40" version="1.1" xmlns="http://www.w3.org/2000/svg" xmlns:xlink="http://www.w3.org/1999/xlink">
    <title>Logo</title>
    <g id="Web" stroke="none" stroke-width="1" fill="none" fill-rule="evenodd">
        <g id="Share-Link-Screen" transform="translate(-370.000000, -66.000000)" fill="#FF2D55">
            <g id="Logo" transform="translate(370.000000, 66.000000)">
                <path d="M51.9327013,18.2515118 L51.9327013,12.6889835 L57.9818934,18.2515118 L64.1477367,18.2515118 L56.6987315,11.4695704 L63.9144345,5.82352079 L58.0318868,5.82352079 L51.9327013,10.7345817 L51.9327013,5.82352079 L47.2,5.82352079 L47.2,18.2515118 L51.9327013,18.2515118 Z M69.2637201,18.2515118 L69.2637201,14.3594124 L74.8629724,14.3594124 C79.3957004,14.3594124 80.7455201,12.4551235 80.7455201,10.2000445 L80.7455201,9.93277587 C80.7455201,7.64428828 79.4290292,5.82352079 74.8629724,5.82352079 L64.5310188,5.82352079 L64.5310188,18.2515118 L69.2637201,18.2515118 Z M74.2963814,11.2524147 L69.2637201,11.2524147 L69.2637201,8.93051853 L74.2963814,8.93051853 C75.3962345,8.93051853 75.8628388,9.36483004 75.8628388,10.0664102 L75.8628388,10.116523 C75.8628388,10.8013989 75.37957,11.2524147 74.2963814,11.2524147 Z M85.4448925,18.2515118 L86.3947657,16.2469971 L93.4771532,16.2469971 L94.4436907,18.2515118 L99.626332,18.2515118 L93.1438643,5.82352079 L86.7780478,5.82352079 L80.6455334,18.2515118 L85.4448925,18.2515118 Z M91.960689,13.1399993 L87.844572,13.1399993 L89.8776339,8.86370138 L91.960689,13.1399993 Z M109.058406,18.4853718 C116.54074,18.4853718 117.690586,14.9941754 117.690586,13.3571551 L117.690586,13.0898865 L112.79124,13.0898865 C112.724583,13.3738594 112.357965,15.1278097 108.708452,15.1278097 C105.375564,15.1278097 104.542342,13.3738594 104.542342,12.0375163 L104.542342,11.8370648 C104.542342,10.4506088 105.275578,8.93051853 108.691788,8.93051853 C112.274643,8.93051853 112.691254,10.517426 112.774576,10.8348075 L117.690586,10.8348075 L117.690586,10.6176517 C117.673922,9.03074426 116.607398,5.58966074 109.058406,5.58966074 L108.408492,5.58966074 C100.676192,5.58966074 99.6429964,9.38153433 99.6429964,11.7535434 L99.6429964,12.2379677 C99.6429964,14.5932725 100.776178,18.4853718 108.408492,18.4853718 L109.058406,18.4853718 Z M123.456483,18.2515118 L123.456483,13.524198 L131.205448,13.524198 L131.205448,18.2515118 L135.921485,18.2515118 L135.921485,5.82352079 L131.205448,5.82352079 L131.205448,10.2167488 L123.456483,10.2167488 L123.456483,5.82352079 L118.723782,5.82352079 L118.723782,18.2515118 L123.456483,18.2515118 Z M141.154119,18.2515118 L142.103993,16.2469971 L149.18638,16.2469971 L150.152918,18.2515118 L155.335559,18.2515118 L148.853091,5.82352079 L142.487275,5.82352079 L136.35476,18.2515118 L141.154119,18.2515118 Z M147.669916,13.1399993 L143.553799,13.1399993 L145.586861,8.86370138 L147.669916,13.1399993 Z M160.851489,18.2515118 L165.084257,14.2591867 L167.267299,14.2591867 L167.267299,18.2515118 L172,18.2515118 L172,5.82352079 L161.101455,5.82352079 C156.818694,5.82352079 155.468874,7.81133117 155.468874,9.89936729 L155.468874,10.1666359 C155.468874,12.0709249 156.718707,13.5910151 159.734971,13.9919181 L155.018934,18.2515118 L160.851489,18.2515118 Z M167.267299,11.2858233 L161.884684,11.2858233 C160.801496,11.2858233 160.36822,10.7679903 160.36822,10.116523 L160.36822,10.0831145 C160.36822,9.46505578 160.784831,8.93051853 161.86802,8.93051853 L167.267299,8.93051853 L167.267299,11.2858233 Z M51.9327013,34.9558007 L51.9327013,29.3932725 L57.9818934,34.9558007 L64.1477367,34.9558007 L56.6987315,28.1738594 L63.9144345,22.5278097 L58.0318868,22.5278097 L51.9327013,27.4388707 L51.9327013,22.5278097 L47.2,22.5278097 L47.2,34.9558007 L51.9327013,34.9558007 Z M69.2637201,34.9558007 L69.2637201,30.2284869 L77.0126853,30.2284869 L77.0126853,34.9558007 L81.7287221,34.9558007 L81.7287221,22.5278097 L77.0126853,22.5278097 L77.0126853,26.9210377 L69.2637201,26.9210377 L69.2637201,22.5278097 L64.5310188,22.5278097 L64.5310188,34.9558007 L69.2637201,34.9558007 Z M92.6106022,35.1896607 C100.626198,35.1896607 101.642729,31.2808571 101.642729,28.958961 L101.642729,28.4578323 C101.642729,26.1025276 100.609534,22.2939497 92.6106022,22.2939497 L91.8607024,22.2939497 C83.8284417,22.2939497 82.8119108,26.1025276 82.8119108,28.4578323 L82.8119108,28.958961 C82.8119108,31.2808571 83.8284417,35.1896607 91.8607024,35.1896607 L92.6106022,35.1896607 Z M92.2273201,31.8320987 C88.561143,31.8320987 87.7112565,30.0781483 87.7112565,28.7752138 L87.7112565,28.5747623 C87.7112565,27.2551235 88.4944852,25.6348075 92.2273201,25.6348075 C95.9101616,25.6348075 96.7433836,27.2551235 96.7433836,28.5747623 L96.7433836,28.8086224 C96.7433836,30.1282612 95.8934971,31.8320987 92.2273201,31.8320987 Z M107.458619,34.9558007 L107.458619,25.8352589 L114.640993,25.8352589 L114.640993,34.9558007 L119.35703,34.9558007 L119.35703,22.5278097 L102.725918,22.5278097 L102.725918,34.9558007 L107.458619,34.9558007 Z M125.589531,34.9558007 L125.589531,29.3932725 L131.638723,34.9558007 L137.804567,34.9558007 L130.355561,28.1738594 L137.571265,22.5278097 L131.688717,22.5278097 L125.589531,27.4388707 L125.589531,22.5278097 L120.85683,22.5278097 L120.85683,34.9558007 L125.589531,34.9558007 Z M141.920684,34.9558007 L142.870557,32.951286 L149.952944,32.951286 L150.919482,34.9558007 L156.102123,34.9558007 L149.619655,22.5278097 L143.253839,22.5278097 L137.121325,34.9558007 L141.920684,34.9558007 Z M148.43648,29.8442883 L144.320363,29.8442883 L146.353425,25.5679903 L148.43648,29.8442883 Z" id="КРАСНАЯКНОПКА" fill-rule="nonzero"></path>
                <circle id="Oval" cx="19.6" cy="20.3896607" r="19.6"></circle>
            </g>
        </g>
    </g>
</svg>