<svg width="31" height="31" viewBox="0 0 31 31" fill="none" xmlns="http://www.w3.org/2000/svg">
<path fill-rule="evenodd" clip-rule="evenodd" d="M15.5 31C24.0604 31 31 24.0604 31 15.5C31 6.93959 24.0604 0 15.5 0C6.93959 0 0 6.93959 0 15.5C0 24.0604 6.93959 31 15.5 31ZM22.1429 12.6429C22.1429 15.6604 20.0836 17.7595 17.1386 17.7595H13.9279V18.8892H19.5134C19.7427 18.8892 19.9286 19.0789 19.9286 19.3129V20.725C19.9286 20.959 19.7427 21.1487 19.5134 21.1487H13.9279V22.9845C13.9279 23.2185 13.742 23.4082 13.5127 23.4082H11.4866C11.2573 23.4082 11.0714 23.2185 11.0714 22.9845V21.1487H9.27232C9.04304 21.1487 8.85714 20.959 8.85714 20.725V19.3129C8.85714 19.0789 9.04304 18.8892 9.27232 18.8892H11.0714V17.7595H9.27232C9.04304 17.7595 8.85714 17.5698 8.85714 17.3358V15.7341C8.85714 15.5002 9.04304 15.3105 9.27232 15.3105H11.0714V8.01549C11.0714 7.78153 11.2573 7.59184 11.4866 7.59184H17.1386C20.0836 7.59184 22.1429 9.62536 22.1429 12.6429ZM16.6514 10.0189H13.9279V15.3105H16.6071C18.2679 15.3105 19.2421 14.2609 19.2421 12.6429C19.2421 11.0466 18.2679 10.0189 16.6514 10.0189Z" fill="#2A2C36"/>
</svg>
